<svg height="512" width="512" xmlns="http://www.w3.org/2000/svg"><path d="m207.3001251 507.2270203c-116.6467209-22.9464722-204.7107463-126.6759644-204.7107463-251.2273713 0-141.3846282 113.4556499-255.999649 253.4106212-255.999649 107.9807739 0 200.128418 68.2562332 236.6234741 164.3653259-14.6213379 4.6752014-46.3552856 26.7032471-113.530365 108.3215942l-.2137146 2.0274963c-29.8545227 34.4298401-61.5598145 73.1584167-82.9173889 99.6011658-9.0661621-2.0700989-18.8600464-4.3092346-29.6107788-6.8626404-68.7933197-17.2955933-89.3518982-33.8578186-99.622818-45.8440552-9.7373199-12.0127563 1.8277588-36.960907 57.260376-49.1999512 28.0665588-6.8298035 132.5971527-8.0848694 132.5971527-8.0848694-29.9893188-23.8097076-86.290741-66.4368591-97.7992554-75.5023041-10.0928192-7.9507599-26.3582306-20.1520996-28.106369-31.0550842-2.358551-10.6138306 14.3482666-15.7241364 23.1930084-16.3135986 28.4995728-1.9653473 67.416748 1.3758698 102.0093079 8.2552795 17.3884583 3.4578552 20.4412537 2.9480133 20.4412537 2.9480133 24.7651367 1.1796265 44.0274658-11.7927704 43.0447998-39.1134186-.1969604-27.7138596-27.9052429-49.9360733-58.571991-50.9068718-28.8795166-.9135284-100.0446777 4.127636-100.0446777 4.127636 82.9446411 17.100029 96.5043945 21.4637375 100.8303833 31.4482956 2.5555115 5.8967361-4.2680054 11.7592392-27.1236877 10.6138382-24.8824768-1.2473755-75.8682861-7.2726135-75.8682861-7.2726135-48.5483246-7.4688644-82.3544617-14.5445175-97.0959473 4.7171097-9.6304626 12.5840607 1.375885 27.9101181 5.6997833 36.9518204 19.2623291 33.6098785 52.5697937 56.668808 73.7066803 72.9202576 7.9528656 6.1146393 32.2340088 19.6548309 32.2340088 19.6548309-75.4750671-20.6375122-135.6199036-9.0417023-173.7506409 11.0070496-43.8305206 25.9440765-36.3330193 69.7263947 33.2173767 110.6577911 41.0787659 24.1756897 61.5325928 35.7889404 128.7914734 44.0470276 4.1486206.6614075 7.8474121 1.2732239 11.2829285 1.8570862-1.2969666 1.6343079-8.6121826 12.0791016-11.7305908 16.6628113-5.8220062.339447-10.834549.6027527-13.8852234.8129578-32.2444916 2.2237549-115.633316 2.7796936-116.0502777 2.7796936 0 0 22.5365143 6.5434875 52.5348816 10.2842102 8.9306641 1.1139526 36.2792511 4.2638245 64.2180023 5.8031311-19.6115418 29.8223877-33.5854493 53.5671387-40.4627534 67.5180054zm294.4286041-313.9095459c-21.6180725 40.3684692-84.832428 109.66745-84.832428 109.66745l-2.4416809-.7536011c-25.6060486 30.9042358-51.3985596 60.4263-71.9054565 83.4342346 17.5449219 4.9741211 31.0264587 10.3505249 42.8157043 18.5750732 9.6905518 6.7599792 6.1013794 13.769989 5.8967285 15.9211121-7.8599548 9.0186462-21.9840393 13.5387878-46.9140015 17.0797729-14.9140015 2.1182861-37.4009094 2.8921204-52.1395874 3.1742859-16.6509399 16.5867004-51.9349518 50.8845215-72.9468079 68.8729553 11.9987947 1.7607117 24.2574007 2.7112427 36.7388002 2.7112427 139.9549561 0 253.410614-114.6150208 253.410614-256.0003662 0-21.62854-2.6826172-42.6208496-7.6818848-62.6821594z"/></svg>